<?xml version="1.0" encoding="UTF-8"?><svg id="Layer_1" xmlns="http://www.w3.org/2000/svg" width="24" height="24" viewBox="0 0 24 24"><defs><style>.cls-1{fill:#212121;stroke-width:0px;}</style></defs><path class="cls-1" d="m5.5,4.63v2.12s0,10.5,0,10.5c0,1.79,1.46,3.25,3.25,3.25h8.62c-.31.87-1.14,1.5-2.12,1.5h-6.49c-2.62,0-4.75-2.13-4.75-4.75V6.75c0-.98.63-1.81,1.5-2.12Zm12.25-2.63c1.24,0,2.25,1.01,2.25,2.25v13c0,1.24-1.01,2.25-2.25,2.25h-9c-1.24,0-2.25-1.01-2.25-2.25V4.25c0-1.24,1.01-2.25,2.25-2.25h9Zm0,1.5h-9c-.41,0-.75.34-.75.75v13c0,.41.34.75.75.75h9c.41,0,.75-.34.75-.75V4.25c0-.41-.34-.75-.75-.75Z"/></svg>