<?xml version="1.0" encoding="UTF-8"?><svg id="Layer_1" xmlns="http://www.w3.org/2000/svg" width="24" height="24" viewBox="0 0 24 24"><defs><style>.cls-1{fill:#212121;stroke-width:0px;}</style></defs><path class="cls-1" d="m1.7,12c0-.95.12-1.86.36-2.74.24-.87.59-1.7,1.03-2.47.44-.77.98-1.47,1.61-2.08.63-.62,1.33-1.15,2.09-1.61.77-.46,1.58-.8,2.46-1.04s1.79-.36,2.75-.36c.94,0,1.85.12,2.73.36.87.24,1.7.59,2.47,1.04s1.47.99,2.08,1.61,1.15,1.32,1.61,2.09.8,1.59,1.04,2.46.36,1.78.38,2.74c0,.95-.12,1.86-.36,2.74s-.59,1.7-1.03,2.47-.98,1.47-1.61,2.08-1.33,1.15-2.09,1.61-1.58.8-2.46,1.04-1.79.36-2.75.36c-.95,0-1.87-.12-2.75-.36s-1.7-.59-2.46-1.03c-.76-.44-1.45-.98-2.08-1.61-.63-.63-1.17-1.32-1.61-2.08-.44-.76-.79-1.58-1.04-2.47-.25-.89-.37-1.8-.36-2.75Zm19.23,0c0-.82-.1-1.61-.31-2.37s-.51-1.47-.9-2.14-.86-1.27-1.4-1.8-1.14-1-1.8-1.4c-.67-.39-1.38-.69-2.14-.9s-1.55-.31-2.38-.32c-.82,0-1.61.1-2.37.31s-1.47.51-2.14.9c-.67.39-1.27.86-1.8,1.4s-1,1.14-1.4,1.8c-.39.67-.69,1.38-.9,2.14s-.31,1.55-.32,2.38c0,.82.1,1.61.31,2.37s.51,1.47.9,2.14c.39.67.86,1.27,1.4,1.81s1.14,1.01,1.8,1.4,1.38.68,2.14.89,1.55.31,2.38.32c.82,0,1.61-.1,2.37-.31s1.47-.51,2.14-.9,1.27-.86,1.81-1.4,1.01-1.14,1.4-1.8.68-1.38.89-2.14.31-1.55.32-2.38Zm-13.74,0c0-.19.07-.35.2-.48s.3-.2.48-.2.35.07.48.2l2.26,2.25,5.01-5c.14-.14.3-.2.48-.2s.35.07.48.2.2.3.2.48-.07.35-.2.48l-5.49,5.49c-.14.14-.3.2-.48.2s-.35-.07-.48-.2l-2.75-2.75c-.14-.14-.2-.3-.2-.48Z"/></svg>